<?xml version="1.0" standalone="no"?><!DOCTYPE svg PUBLIC "-//W3C//DTD SVG 1.1//EN" "http://www.w3.org/Graphics/SVG/1.1/DTD/svg11.dtd"><svg t="1586790188126" class="icon" viewBox="0 0 1024 1024" version="1.1" xmlns="http://www.w3.org/2000/svg" p-id="1221" xmlns:xlink="http://www.w3.org/1999/xlink" width="200" height="200"><defs><style type="text/css"></style></defs><path d="M741.74 578.219h220.582c1.701-15.289 2.373-30.927 2.373-46.907 0-74.96-20.112-145.273-55.249-205.826 36.324-96.528 35.042-178.477-13.606-227.43-46.256-46.043-170.343-38.582-310.623 23.538-10.371-0.785-20.861-1.185-31.423-1.185-192.544 0-354.083 132.508-398.731 311.025 60.398-77.334 123.935-133.395 208.828-174.231-7.711 7.232-52.763 51.998-60.324 59.577-223.849 223.776-294.433 516.103-218.474 592.078 57.743 57.722 162.367 47.977 282.549-10.887 55.881 28.453 119.152 44.51 186.15 44.51 180.466 0 333.415-116.162 388.82-277.955h-222.284c-30.585 56.418-90.407 94.827-159.052 94.827-68.647 0-128.471-38.411-159.052-94.827-13.587-25.488-21.413-54.711-21.413-85.637v-0.669h360.932zM381.131 469.785c5.091-90.749 80.551-163.147 172.659-163.147s167.551 72.396 172.661 163.147h-345.319zM893.823 143.661c31.327 31.652 30.547 89.91 3.75 162.612-45.911-70.007-112.623-125.162-191.378-156.662 84.204-36.11 152.701-40.895 187.623-5.967v0.017zM143.018 894.449c-39.973-39.997-27.921-123.916 23.58-225.040 32.054 89.963 94.523 165.482 175.051 214.129-89.18 40.476-162.151 47.347-198.629 10.91v0zM143.018 894.449z" p-id="1222" fill="#29B6F6"></path></svg>