<?xml version="1.0" standalone="no"?><!DOCTYPE svg PUBLIC "-//W3C//DTD SVG 1.1//EN" "http://www.w3.org/Graphics/SVG/1.1/DTD/svg11.dtd"><svg t="1586790329609" class="icon" viewBox="0 0 1024 1024" version="1.1" xmlns="http://www.w3.org/2000/svg" p-id="5418" xmlns:xlink="http://www.w3.org/1999/xlink" width="200" height="200"><defs><style type="text/css"></style></defs><path d="M512 85.333333C276.202667 85.333333 85.333333 276.202667 85.333333 512s190.869333 426.666667 426.666667 426.666667 426.666667-190.869333 426.666667-426.666667S747.797333 85.333333 512 85.333333z m0 746.666667c-112.277333 0-213.333333-147.114667-213.333333-320S399.722667 192 512 192s213.333333 147.114667 213.333333 320-101.056 320-213.333333 320z" fill="#FF1744" p-id="5419"></path><path d="M780.032 180.16C734.144 148.736 680.32 128 624.277333 128c-84.224 0-160.512 42.24-216.874666 108.352C438.890667 208.426667 474.773333 192 512 192c112.277333 0 213.333333 147.114667 213.333333 320s-101.056 320-213.333333 320c-37.226667 0-73.109333-16.426667-104.597333-44.352C463.765333 853.76 540.053333 896 624.277333 896c56.021333 0 109.866667-20.736 155.733334-52.138667C876.736 765.674667 938.666667 646.186667 938.666667 512c0-134.165333-61.930667-253.653333-158.634667-331.84z" fill="#D50000" p-id="5420"></path></svg>