<?xml version="1.0" standalone="no"?><!DOCTYPE svg PUBLIC "-//W3C//DTD SVG 1.1//EN" "http://www.w3.org/Graphics/SVG/1.1/DTD/svg11.dtd"><svg t="1586618256972" class="icon" viewBox="0 0 1024 1024" version="1.1" xmlns="http://www.w3.org/2000/svg" p-id="3731" xmlns:xlink="http://www.w3.org/1999/xlink" width="200" height="200"><defs><style type="text/css"></style></defs><path d="M810.666667 981.333333H213.333333c-72.533333 0-128-55.466667-128-128V384c0-12.8 4.266667-25.6 17.066667-34.133333l384-298.666667c17.066667-12.8 38.4-12.8 51.2 0l384 298.666667c12.8 8.533333 17.066667 21.333333 17.066667 34.133333v469.333333c0 72.533333-55.466667 128-128 128zM170.666667 405.333333V853.333333c0 25.6 17.066667 42.666667 42.666666 42.666667h597.333334c25.6 0 42.666667-17.066667 42.666666-42.666667V405.333333l-341.333333-264.533333-341.333333 264.533333z" p-id="3732"></path><path d="M640 981.333333c-25.6 0-42.666667-17.066667-42.666667-42.666666v-384h-170.666666v384c0 25.6-17.066667 42.666667-42.666667 42.666666s-42.666667-17.066667-42.666667-42.666666V512c0-25.6 17.066667-42.666667 42.666667-42.666667h256c25.6 0 42.666667 17.066667 42.666667 42.666667v426.666667c0 25.6-17.066667 42.666667-42.666667 42.666666z" p-id="3733"></path></svg>